<?xml version="1.0" standalone="no"?>
<!DOCTYPE svg PUBLIC "-//W3C//DTD SVG 20010904//EN"
 "http://www.w3.org/TR/2001/REC-SVG-20010904/DTD/svg10.dtd">
<svg version="1.0" xmlns="http://www.w3.org/2000/svg"
 width="260.000000pt" height="260.000000pt" viewBox="0 0 260.000000 260.000000"
 preserveAspectRatio="xMidYMid meet">
<metadata>
Created by potrace 1.14, written by Peter Selinger 2001-2017
</metadata>
<g transform="translate(0.000000,260.000000) scale(0.100000,-0.100000)"
fill="#000000" stroke="none">
<path d="M638 2277 l-638 -322 0 -655 0 -655 639 -322 c351 -178 648 -323 661
-323 12 0 310 145 661 323 l639 322 0 655 0 655 -639 323 c-351 177 -649 322
-662 322 -13 0 -311 -146 -661 -323z m266 -579 c63 -136 206 -422 216 -432 8
-8 168 303 236 456 l29 67 53 1 c43 0 52 -3 52 -17 0 -18 73 -621 86 -715 l7
-48 -97 0 -96 0 0 52 c0 65 -29 393 -39 432 -6 25 -21 0 -129 -225 -107 -225
-124 -254 -147 -257 -21 -3 -28 4 -49 50 -13 29 -68 143 -122 253 l-97 200 -8
-44 c-8 -39 -39 -398 -39 -442 0 -16 -8 -19 -55 -19 -30 0 -55 1 -55 3 0 1 15
94 34 207 19 113 44 282 56 375 12 94 23 176 25 183 3 7 22 12 50 12 l46 0 43
-92z m1046 -295 c-5 -366 -6 -391 -26 -433 -11 -25 -37 -59 -57 -76 -33 -30
-130 -74 -161 -74 -18 0 -32 53 -16 58 32 11 63 51 71 92 4 25 8 219 9 433 l0
387 93 0 92 0 -5 -387z"/>
</g>
</svg>
